<svg width="350" height="350" xmlns="http://www.w3.org/2000/svg" version="1.1">

 <g>
  <title>Layer 1</title>
  <path fill-rule="nonzero" fill="#042b48" d="m231.11247,176.4411c-12.70797,0 -23.00338,-10.29541 -23.00338,-23.00338c0,-1.34031 0.11359,-2.65336 0.34076,-3.93006l-55.01184,-31.67679c-4.00276,3.38031 -9.17773,5.42031 -14.82521,5.42031c-12.70797,0 -23.00792,-10.29995 -23.00792,-23.00338c0,-12.70343 10.29995,-23.00338 23.00792,-23.00338c12.70798,0 23.00793,10.29995 23.00793,23.00338c0,1.46299 -0.14993,2.89417 -0.41345,4.28446l54.81192,31.55865c4.03911,-3.52116 9.31857,-5.65657 15.09327,-5.65657c12.69888,0 22.99884,10.29995 22.99884,23.00338c0,12.70797 -10.29996,23.00338 -22.99884,23.00338m-69.77343,30.55001c0,12.70343 -10.29541,23.00338 -23.00339,23.00338c-12.69888,0 -22.99883,-10.29995 -22.99883,-23.00338c0,-12.70797 10.29995,-23.00792 22.99883,-23.00792c5.71109,0 10.92695,2.08544 14.94789,5.52935l40.10484,-23.04881c1.71287,4.94779 4.37532,9.45488 7.76018,13.3077l-40.17754,23.09425c0.23626,1.34031 0.36802,2.71697 0.36802,4.12543m138.32014,-140.3874l-109.23311,-62.41763c-7.4376,-4.2481 -16.56989,-4.2481 -24.00748,0l-109.22403,62.41763c-7.54209,4.30717 -12.19456,12.33086 -12.19456,21.00881l0,126.97066c0,8.6416 4.61158,16.6335 12.09915,20.9543l188.03888,108.53795l0.0318,-77.09288l54.56658,-31.44507c7.49665,-4.3208 12.11278,-12.3127 12.11278,-20.96338l0,-126.96158c0,-8.67795 -4.65247,-16.70164 -12.19002,-21.00881" id="path4213"/>
 </g>
</svg>