<svg width="60" height="60" xmlns="http://www.w3.org/2000/svg" fill="none">
 <defs>
  <linearGradient y2="1" x2="0.5" y1="0" x1="0.5" id="paint0_linear_1098_6420">
   <stop stop-color="#007AFF"/>
   <stop stop-opacity="0" stop-color="#3097CB" offset="1"/>
  </linearGradient>
  <linearGradient y2="0.50019" x2="1" y1="0.50019" x1="-0.00077" id="paint1_linear_1098_6420">
   <stop stop-color="#2BC4F3"/>
   <stop stop-color="#00AEEE" offset="0.5"/>
   <stop stop-color="#0095DA" offset="1"/>
  </linearGradient>
  <linearGradient y2="0.99515" x2="1.07082" y1="-0.26658" x1="-0.38366" id="paint2_linear_1098_6420">
   <stop stop-opacity="0.5" stop-color="white" offset="0.04"/>
   <stop stop-opacity="0" stop-color="white" offset="1"/>
  </linearGradient>
  <linearGradient y2="0.5" x2="1.00123" y1="0.5" x1="0" id="paint3_linear_1098_6420">
   <stop stop-color="#DA2128"/>
   <stop stop-color="#ED6C30" offset="0.52"/>
   <stop stop-color="#F05123" offset="1"/>
  </linearGradient>
  <linearGradient y2="1.02412" x2="0.93422" y1="0.25439" x1="0.29753" id="paint4_linear_1098_6420">
   <stop stop-color="#FFF33B"/>
   <stop stop-color="#FEE72E" offset="0.04"/>
   <stop stop-color="#FED51B" offset="0.12"/>
   <stop stop-color="#FDCA10" offset="0.2"/>
   <stop stop-color="#FDC70C" offset="0.28"/>
   <stop stop-color="#F3903F" offset="0.67"/>
   <stop stop-color="#ED683C" offset="0.89"/>
   <stop stop-color="#E93E3A" offset="1"/>
  </linearGradient>
 </defs>
 <g>
  <title>Layer 1</title>
  <path id="svg_3" fill="#00AEEF" d="m32.55033,22.3929c-0.1227,-1.8915 -0.7005,-3.7254 -1.6841,-5.3457c-0.6391,-1.0929 -1.4589,-2.0696 -2.4244,-2.8886c-0.0129,-0.035 -0.0373,-0.0648 -0.0691,-0.0844c-1.1956,-1.0423 -2.5862,-1.8371 -4.0912,-2.3381c-0.6023,-0.1918 -1.2199,-0.2934 -1.8394,-0.4469c-0.4297,-0.0518 -0.8421,-0.1036 -1.2717,-0.1381c-0.257,-0.0172 -0.516,-0.0345 -0.7672,-0.0345c-0.2513,0 -0.5755,0.0345 -0.8593,0.0345c-0.1727,0.0173 -0.3625,0.0173 -0.5333,0.0518c-0.7672,0.1534 -1.5651,0.2743 -2.3381,0.4987c-1.0504,0.3065 -2.04364,0.7827 -2.94038,1.4098c-0.49869,0.326 -0.95903,0.7212 -1.42704,1.0818c-0.58594,0.5789 -1.14224,1.187 -1.6668,1.8221c-1.22491,1.5987 -2.01283,3.4885 -2.28633,5.4838c-0.05179,0.2934 -0.10358,0.6022 -0.1381,0.8938l0,1.8567c0.03452,0.2934 0.08631,0.5754 0.1381,0.8765c0.30408,2.109 1.17146,4.0969 2.51075,5.7542c0.46417,0.5486 0.99548,1.03 1.49417,1.5633c1.60072,1.4234 3.55413,2.3912 5.65633,2.8023c0.447,0.0863 0.9284,0.1381 1.3753,0.1918l0.1554,0.0498l1.7262,0c0.0863,-0.0153 0.1535,-0.0326 0.2398,-0.0498c0.2244,-0.0346 0.4469,-0.0518 0.6713,-0.0864l0.2052,-0.0517l0.0173,0.0172c0.0863,-0.0172 0.1554,-0.0173 0.2417,-0.0345c1.3178,-0.235 2.5855,-0.6943 3.7479,-1.358c0.7623,-0.4249 1.4707,-0.9401 2.1098,-1.5345c0.073,-0.0512 0.1416,-0.1083 0.2053,-0.1707c1.2238,-1.1367 2.2029,-2.5112 2.8771,-4.0394c0.6799,-1.5377 1.0258,-3.2022 1.0146,-4.8834c-0.0326,-0.3011 -0.0326,-0.5946 -0.0498,-0.9034zm-12.36,8.6121c-1.2674,-0.0106 -2.5106,-0.3476 -3.6098,-0.9782c-0.6004,-0.3332 -1.1501,-0.7504 -1.63232,-1.2391c-0.72472,-0.7175 -1.29995,-1.5716 -1.6924,-2.5129c-0.39245,-0.9412 -0.59432,-1.951 -0.59394,-2.9708l0,-0.0518c0.02962,-2.0334 0.84963,-3.9754 2.28634,-5.4147c0,-0.0046 0.00182,-0.009 0.00506,-0.0122c0.00323,-0.0032 0.00762,-0.0051 0.0122,-0.0051c0.47856,-0.4778 1.01536,-0.8934 1.59776,-1.2371l0.0173,0c1.1229,-0.6515 2.3978,-0.9956 3.6961,-0.9974l0.1208,0c1.294,0.0329 2.5613,0.3748 3.6961,0.9974c1.1894,0.6775 2.1823,1.6525 2.8814,2.8294c0.6991,1.1768 1.0803,2.5152 1.1063,3.8838l0,0.0345c-0.0103,2.0036 -0.8065,3.9231 -2.2173,5.3457c-0.5021,0.5154 -1.0757,0.9559 -1.7033,1.3081l-0.0172,0c-1.1406,0.6547 -2.4309,1.0035 -3.746,1.0127l-0.2071,0.0077z"/>
  <path id="svg_4" fill="#414042" d="m46.83583,19.1264l-7.8219,0l0,30.9097l-16.8982,0c3.817,-6.2414 7.5975,-12.4982 11.3972,-18.7376c2.1827,-3.6271 2.785,-7.5303 1.7876,-11.6216c-0.9111,-3.8495 -3.0593,-6.8935 -6.3296,-9.1108c-3.2703,-2.21727 -6.8935,-3.02477 -10.8121,-2.45702c-3.32132,0.44009 -6.39452,1.99562 -8.71572,4.41152c-2.66072,2.6511 -4.23424,6.2011 -4.41155,9.9529c-0.17071,2.9922 0.42965,5.8098 1.96027,8.3551c4.00492,6.6518 8.0789,13.2538 12.1183,19.8884c0.2762,0.4469 0.5755,0.8075 1.0837,0.9801l0.1918,0l0,0.0518l19.315,0l0,-0.0173l7.1352,0c5.1212,0 7.632,-2.854 7.632,-8.0558l0,-16.4858c0,-5.2267 -2.5108,-8.0636 -7.632,-8.0636zm-25.5794,16.365l-1.7262,0l-0.1554,-0.0499c-0.4469,-0.0518 -0.9283,-0.1036 -1.3752,-0.1918c-2.1023,-0.4111 -4.05568,-1.3788 -5.6564,-2.8023c-0.4987,-0.5332 -1.03,-1.0146 -1.49417,-1.5632c-1.33929,-1.6573 -2.20668,-3.6452 -2.51075,-5.7542c-0.05179,-0.2916 -0.10358,-0.5754 -0.1381,-0.8766l0,-1.8567c0.03452,-0.2915 0.08631,-0.6003 0.1381,-0.8938c0.2735,-1.9953 1.06142,-3.8851 2.28633,-5.4837c0.52455,-0.6351 1.08086,-1.2433 1.6668,-1.8222c0.46417,-0.3606 0.92834,-0.7557 1.42704,-1.0818c0.89673,-0.627 1.88995,-1.1032 2.94035,-1.4097c0.7673,-0.2245 1.5633,-0.3453 2.3382,-0.4988c0.1707,-0.0345 0.3606,-0.0345 0.5332,-0.0517c0.2915,0 0.5754,-0.0173 0.8593,-0.0346c0.2839,-0.0172 0.5159,0.0173 0.7672,0.0346c0.4297,0.0345 0.842,0.0863 1.2717,0.1381c0.6195,0.1534 1.2371,0.257 1.8394,0.4469c1.5092,0.4971 2.9044,1.2893 4.1047,2.3304c0.0318,0.0196 0.0561,0.0493 0.069,0.0844c0.9656,0.819 1.7853,1.7957 2.4245,2.8886c0.9836,1.6203 1.5613,3.4542 1.684,5.3457c0.0173,0.3107 0.0173,0.6022 0.0345,0.9111c0.0117,1.6825 -0.3341,3.3483 -1.0146,4.8872c-0.6742,1.5282 -1.6532,2.9027 -2.8771,4.0394c-0.0637,0.0624 -0.1323,0.1195 -0.2052,0.1707c-0.6392,0.5944 -1.3476,1.1096 -2.1099,1.5345c-1.1624,0.6637 -2.4301,1.123 -3.7479,1.358c-0.0863,0.0172 -0.1554,0.0173 -0.2417,0.0345l-0.0173,-0.0173l-0.1994,0.0537c-0.2244,0.0346 -0.4469,0.0518 -0.6714,0.0864c-0.0959,0.0115 -0.1572,0.0287 -0.2436,0.0441zm28.0882,8.4069c0,2.3381 -0.9801,3.1801 -2.5951,3.1801l-2.6124,0l0,-23.293l2.6124,0c1.615,0 2.5951,0.8248 2.5951,3.1629l0,16.95z"/>
  <path id="svg_12" fill="url(#paint0_linear_1098_6420)" d="m20.50343,49c-1.0008,-0.2679 -1.914,-1.9639 -2.3811,-2.8106c-3.21275,-5.7347 -6.56099,-11.0843 -9.80206,-16.8152c-1.34829,-2.3117 -1.96882,-4.9539 -1.78531,-7.602c0.4165,-5.9694 4.8525,-11.495 11.63997,-12.6056c2.6001,-0.39629 5.2631,-0.08227 7.6886,0.9066c2.4255,0.989 4.5171,2.6134 6.039,4.6904c1.5219,2.0769 2.4135,4.5236 2.5745,7.0644c0.1609,2.5408 -0.4153,5.0745 -1.6637,7.3155c-3.3482,5.985 -6.6318,11.5751 -9.9982,17.5504c-0.3381,0.5873 -1.1523,2.0935 -1.8117,2.3061l-0.5,0zm1.0278,-33.1523c-1.2013,-0.2127 -2.4415,-0.0484 -3.5393,0.469c-1.0979,0.5173 -1.996,1.3605 -2.5631,2.4065c-0.56709,1.046 -0.77352,2.2399 -0.58911,3.4074c0.18441,1.1675 0.75001,2.2474 1.61411,3.0819c0.8641,0.8346 1.9816,1.3801 3.1891,1.5569c1.2075,0.1768 2.4418,-0.0244 3.5227,-0.5742c1.0808,-0.5498 1.9516,-1.4194 2.4851,-2.4818c0.5335,-1.0624 0.7018,-2.2619 0.4803,-3.4233c-0.213,-1.1031 -0.7665,-2.118 -1.5876,-2.911c-0.821,-0.793 -1.8712,-1.3269 -3.0122,-1.5314z"/>
  <circle id="svg_13" fill="white" r="13" cy="23" cx="20.50343"/>
  <path id="svg_14" fill="url(#paint1_linear_1098_6420)" d="m32.78003,22.9435c0,0.2877 -0.0096,0.5754 -0.0288,0.8535c0,0.0364 0,0.071 -0.0096,0.1074l-0.0115,0.1592c0,0.0518 -0.0096,0.1055 -0.0154,0.1573l-0.0172,0.1573l-0.0173,0.1477l-0.023,0.1668c-0.0134,0.1036 -0.0288,0.2053 -0.046,0.3088c-0.0096,0.0499 -0.0173,0.1017 -0.0269,0.1535l-0.0288,0.1534c-0.0096,0.0499 -0.0191,0.1017 -0.0306,0.1516c-0.0116,0.0498 -0.0212,0.1016 -0.0327,0.1534c-0.0115,0.0518 -0.0211,0.0997 -0.0326,0.1515c-0.0115,0.0518 -0.0191,0.0844 -0.0307,0.1286c0,0.0115 0,0.023 0,0.0326c-0.0115,0.0441 -0.0211,0.0863 -0.0326,0.1285c-0.0326,0.1285 -0.0671,0.2551 -0.1035,0.3836c-0.0192,0.0652 -0.0384,0.1304 -0.0595,0.1918c-0.0422,0.14 -0.0882,0.2781 -0.1362,0.4143c-0.0211,0.0652 -0.0441,0.1285 -0.0671,0.1918l0,0.0134l-0.0691,0.1918c0,0.0115 -0.0096,0.023 -0.0134,0.0365c-0.0499,0.1285 -0.1036,0.257 -0.1573,0.3836l-0.0671,0.1534l-0.0614,0.1362l0,0.0173c-0.0072,0.013 -0.0136,0.0265 -0.0192,0.0402c-0.0007,0.0058 -0.0007,0.0116 0,0.0173c-0.0191,0.0422 -0.0402,0.0825 -0.0594,0.1228l-0.0691,0.14c0.0008,0.0057 0.0008,0.0115 0,0.0173c0,0.0134 -0.0134,0.0287 -0.0211,0.0441l-0.0767,0.1515l-0.0115,0.0173c-0.023,0.0479 -0.0499,0.0959 -0.0748,0.1438c-0.0249,0.048 -0.0288,0.0537 -0.0441,0.0806c-0.0595,0.1093 -0.1209,0.2167 -0.1918,0.3241c-0.0288,0.0499 -0.0576,0.0998 -0.0883,0.1496c-0.1822,0.2973 -0.374,0.587 -0.5754,0.8689c-0.2957,0.4067 -0.616,0.7948 -0.959,1.1624c-1.4364,1.5461 -3.2412,2.7029 -5.2459,3.3623c-0.2896,0.0959 -0.5754,0.1803 -0.8823,0.2532l-0.1822,0.0441l-0.0096,0c-0.1784,0.0422 -0.3587,0.0787 -0.539,0.1113l-0.1918,0.0326l-0.1918,0.0307c-0.1228,0.0192 -0.2455,0.0345 -0.3683,0.0498l-0.2129,0.025l-0.1669,0.0153l-0.1918,0.0154l-0.211,0.0153l-0.1515,0l-0.0499,0l-0.14,0l-0.1151,0l-0.2973,0c-0.4787,-0.0003 -0.9571,-0.0278 -1.4328,-0.0825c-0.1572,-0.0172 -0.3126,-0.0383 -0.4661,-0.0613l-0.1572,-0.025l-0.305,-0.0556l-0.1554,-0.0288c-0.2474,-0.0517 -0.491,-0.1093 -0.7346,-0.1745c-0.1189,-0.0326 -0.2397,-0.0672 -0.3587,-0.1036c-2.95916,-0.8989 -5.48099,-2.8611 -7.07955,-5.5087c-0.06393,-0.1035 -0.12787,-0.209 -0.1918,-0.3165c-0.18158,-0.3209 -0.34845,-0.6495 -0.50062,-0.9858c-0.06329,-0.1381 -0.12275,-0.2762 -0.1803,-0.4163c-0.19278,-0.4734 -0.35612,-0.9583 -0.4891,-1.4519c-0.03645,-0.1305 -0.06905,-0.2609 -0.09974,-0.3837c-0.22275,-0.9427 -0.33476,-1.9083 -0.33375,-2.8771c-0.00045,-0.5207 0.03222,-1.0409 0.09782,-1.5574c0.00104,-0.0141 0.00104,-0.0282 0,-0.0422c0.01151,-0.0882 0.02494,-0.1765 0.03837,-0.2647c0.03069,-0.2129 0.06905,-0.4239 0.11125,-0.633c0.01534,-0.0805 0.0326,-0.1592 0.04987,-0.2397c0,-0.0365 0.01726,-0.0729 0.02493,-0.1094c0.00767,-0.0364 0.0211,-0.0844 0.03069,-0.1266c0.00959,-0.0422 0.02685,-0.1131 0.0422,-0.1668c0.01534,-0.0537 0.02109,-0.0806 0.03069,-0.1189c0.00959,-0.0384 0.01726,-0.0633 0.02685,-0.094c0.00959,-0.0307 0.02302,-0.0863 0.03644,-0.1304l0,-0.0211c0.01343,-0.0422 0.02494,-0.0864 0.03836,-0.1286c0.02686,-0.0844 0.05179,-0.1688 0.07864,-0.2512c0.83901,-2.5592 2.48178,-4.7792 4.68392,-6.3297l0.02302,-0.0172c0.48005,-0.3373 0.98318,-0.6404 1.50568,-0.9072c0.14193,-0.071 0.28387,-0.1401 0.42963,-0.2072c0.0978,-0.046 0.1918,-0.0902 0.2973,-0.1324l0.0096,0l0.1803,-0.0748l0.0537,-0.023l0.1765,-0.0709l0.2186,-0.0806l0.117,-0.0422l0.0461,-0.0173l0.1266,-0.0421l0.1515,-0.0499l0.2858,-0.0902l0.1496,-0.0422c0.1573,-0.0441 0.3165,-0.0863 0.4757,-0.1246c0.5941,-0.1433 1.198,-0.2427 1.8068,-0.2973l0.3356,-0.025l0.1612,0l0.1496,0l0.3222,0l0.3951,0c0.14,0 0.2801,0 0.4201,0.0154c2.0636,0.109 4.0678,0.7293 5.8322,1.805c1.7645,1.0757 3.2338,2.5732 4.276,4.3577c0.1438,0.2455 0.28,0.4949 0.4066,0.7519l0.0576,0.1151l0.0575,0.1208c0.0345,0.0767 0.071,0.1534 0.1055,0.2321c0.0153,0.0364 0.0326,0.071 0.048,0.1074c0.0153,0.0365 0.0383,0.0863 0.0556,0.1305l0.0403,0.0959l0.0575,0.1438c0.0326,0.0806 0.0633,0.163 0.094,0.2436c0.0153,0.0403 0.0307,0.0825 0.0441,0.1227c0.0134,0.0403 0.0307,0.0806 0.0441,0.1228c0.0134,0.0422 0.0288,0.0825 0.0422,0.1228c0.0134,0.0402 0.0307,0.0901 0.0441,0.1342l0.0461,0.1401l0.0402,0.1342l0.0461,0.1611c0.0096,0.0307 0.0172,0.0633 0.0268,0.0959l0.023,0.0883c0,0.0307 0.0173,0.0594 0.025,0.0882c0.0268,0.1074 0.0537,0.2167 0.0786,0.3241l0.0345,0.1516c0.0115,0.0498 0.0211,0.1016 0.0327,0.1515c0.0115,0.0499 0.021,0.1113 0.0326,0.1669c0.0115,0.0556 0.0172,0.092 0.0249,0.14c0.0077,0.0479 0.0173,0.1017 0.0268,0.1534c0.0096,0.0518 0.0173,0.1017 0.025,0.1535c0.0076,0.0518 0.0153,0.1036 0.0211,0.1554c0.0153,0.1035 0.0287,0.209 0.0403,0.3126c0.0115,0.1036 0.0287,0.2589 0.0383,0.3836c0.0077,0.0806 0.0134,0.1611 0.0173,0.2417c0.0211,0.2685 0.0288,0.537 0.0288,0.8056z"/>
  <path id="svg_15" fill="#00AEEF" d="m32.75363,22.1416c0,-0.0805 -0.0115,-0.163 -0.0173,-0.2435c-0.0115,-0.1305 -0.023,-0.259 -0.0383,-0.3837c-0.0154,-0.1246 -0.0249,-0.209 -0.0403,-0.3126c0,-0.0518 -0.0134,-0.1036 -0.0211,-0.1554c-0.0077,-0.0518 -0.0173,-0.1036 -0.0249,-0.1534c-0.0077,-0.0499 -0.0173,-0.1036 -0.0269,-0.1535c-0.0096,-0.0498 -0.0172,-0.0939 -0.0249,-0.14c-0.0077,-0.046 -0.023,-0.1112 -0.0326,-0.1669c-0.0096,-0.0556 -0.0211,-0.1016 -0.0326,-0.1515l-0.0345,-0.1515c-0.025,-0.1074 -0.0518,-0.2168 -0.0787,-0.3242c0,-0.0287 -0.0153,-0.0575 -0.0249,-0.0882l-0.0192,-0.0844c-0.0096,-0.0326 -0.0173,-0.0652 -0.0269,-0.0959l-0.046,-0.1611l-0.0403,-0.1343l-0.046,-0.14c-0.0134,-0.0441 -0.0288,-0.0882 -0.0441,-0.1343c-0.0154,-0.046 -0.0269,-0.0824 -0.0422,-0.1227c-0.0154,-0.0403 -0.0288,-0.0825 -0.0441,-0.1228c-0.0154,-0.0403 -0.0288,-0.0825 -0.0442,-0.1227c-0.0306,-0.0806 -0.0613,-0.1631 -0.0939,-0.2436l-0.0576,-0.1439l-0.0403,-0.0959c-0.0172,-0.0441 -0.0364,-0.0882 -0.0556,-0.1304c-0.0192,-0.0422 -0.0326,-0.071 -0.0479,-0.1074c-0.0346,-0.0787 -0.071,-0.1554 -0.1055,-0.2321l-0.0576,-0.1208l-0.0575,-0.1151c-0.1279,-0.2558 -0.2621,-0.5058 -0.4028,-0.75c-1.0426,-1.7844 -2.5123,-3.2817 -4.2771,-4.3571c-1.7648,-1.0754 -3.7692,-1.6952 -5.833,-1.8037c-0.14,0 -0.2801,-0.0134 -0.4201,-0.0154l-0.3951,0l-0.3222,0l-0.1497,0l-0.1611,0l-0.3356,0.025c-0.6115,0.0553 -1.218,0.156 -1.8145,0.3011c-0.1592,0.0384 -0.3184,0.0806 -0.4757,0.1247l-0.1496,0.0422l-0.2858,0.0901l-0.1515,0.0499l-0.1266,0.0422l-0.0461,0.0173l-0.117,0.0422l-0.2186,0.0805l-0.1765,0.071l-0.0537,0.023l-0.1803,0.0748l-0.0096,0c-0.0997,0.0422 -0.1918,0.0863 -0.2973,0.1323c-0.14574,0.0672 -0.28768,0.1362 -0.42962,0.2072c-0.53314,0.2707 -1.04597,0.5797 -1.53445,0.9245l-0.03645,0.0249c-2.18198,1.5475 -3.80915,3.7549 -4.64171,6.297c-0.02686,0.0825 -0.05179,0.1669 -0.07864,0.2513c-0.01343,0.0422 -0.02494,0.0863 -0.03837,0.1285l0,0.0211c-0.01342,0.0441 -0.02493,0.0863 -0.03644,0.1305c-0.01151,0.0441 -0.01726,0.0613 -0.02685,0.0939c-0.00959,0.0326 -0.0211,0.0787 -0.03069,0.119c-0.00959,0.0402 -0.02877,0.1112 -0.0422,0.1668c-0.01343,0.0557 -0.0211,0.0844 -0.03069,0.1266c-0.00959,0.0422 -0.01726,0.0729 -0.02493,0.1093c-0.01726,0.0806 -0.03453,0.1592 -0.04987,0.2398c-0.0422,0.2091 -0.08056,0.4201 -0.11125,0.633c-0.01342,0.0882 -0.02685,0.1764 -0.03836,0.2647c0.00103,0.014 0.00103,0.0281 0,0.0422c-0.18329,1.4799 -0.10342,2.9805 0.23592,4.4326c0.03069,0.1324 0.0633,0.2628 0.09974,0.3836c0.13298,0.4936 0.29633,0.9786 0.48911,1.452c0.05754,0.14 0.117,0.2781 0.1803,0.4162c0.15216,0.3376 0.31903,0.6662 0.50061,0.9859c0.0601,0.1074 0.12404,0.2129 0.19181,0.3165c1.59592,2.6499 4.11876,4.6129 7.07953,5.5087c0.119,0.0364 0.2398,0.0709 0.3587,0.1036c0.2436,0.0652 0.4872,0.1227 0.7346,0.1745l0.1554,0.0288l0.305,0.0556l0.1573,0.0249c0.1534,0.023 0.3088,0.0442 0.4661,0.0614c0.4756,0.0546 0.954,0.0822 1.4327,0.0825l0.2973,0l0.1151,0l0.14,0l0.0499,0l0.1515,0l0.211,-0.0154l0.1918,-0.0153l0.1669,-0.0154l0.2129,-0.0249c0.1228,-0.0153 0.2455,-0.0307 0.3683,-0.0499l0.1918,-0.0307l0.1918,-0.0325c0.1803,-0.0327 0.3606,-0.0691 0.539,-0.1113l-0.0211,0l0.1822,-0.0441c0.2992,-0.0729 0.5927,-0.1573 0.8823,-0.2532c2.7485,-0.9031 5.0974,-2.7339 6.6442,-5.1788c0.0479,-0.0729 0.094,-0.1477 0.14,-0.2225c0.046,-0.0748 0.0595,-0.0997 0.0882,-0.1496c0.0633,-0.1074 0.1247,-0.2148 0.1918,-0.3241c0.0154,-0.0269 0.0307,-0.0537 0.0442,-0.0806c0.0134,-0.0269 0.0517,-0.0959 0.0748,-0.1439l0.0115,-0.0172l0.0767,-0.1515c0,-0.0154 0.0134,-0.0307 0.0211,-0.0442c0.0007,-0.0057 0.0007,-0.0115 0,-0.0172l0.069,-0.14c0.0192,-0.0403 0.0403,-0.0806 0.0595,-0.1228c-0.0007,-0.0057 -0.0007,-0.0115 0,-0.0173c0.0056,-0.0138 0.012,-0.0272 0.0192,-0.0402l0,-0.0173l0.0614,-0.1362l0.0671,-0.1534c0.0537,-0.1266 0.1074,-0.2551 0.1573,-0.3836c0,-0.0135 0,-0.025 0.0134,-0.0365l0.069,-0.1918l0,-0.0134c0.0231,-0.0633 0.0461,-0.1266 0.0672,-0.1918c0.0479,-0.1362 0.094,-0.2743 0.1362,-0.4143c0.0211,-0.0652 0.0402,-0.1305 0.0594,-0.1918c0.0365,-0.1266 0.071,-0.2532 0.1036,-0.3837c0.0115,-0.0422 0.0211,-0.0843 0.0326,-0.1284c0,0 0,-0.0212 0,-0.0327c0.0115,-0.0441 0.0211,-0.0863 0.0307,-0.1285c0.0096,-0.0422 0.023,-0.1016 0.0326,-0.1515c0.0096,-0.0499 0.023,-0.1017 0.0326,-0.1534c0.0096,-0.0518 0.0211,-0.1017 0.0307,-0.1516l0.0288,-0.1534c0,-0.0518 0.0172,-0.1036 0.0268,-0.1535c0.0173,-0.1035 0.0326,-0.2052 0.0461,-0.3088l0.023,-0.1668l0.0172,-0.1477l0.0173,-0.1573c0,-0.0518 0,-0.1055 0.0153,-0.1573l0.0116,-0.1592c0.0249,-0.3165 0.0364,-0.6368 0.0364,-0.959c0.0268,-0.2666 0.0192,-0.5352 0.0019,-0.7999zm-1.099,-0.8765c0.0249,0.1611 0.0441,0.326 0.0613,0.491c0.025,0.2167 0.0403,0.4335 0.0633,0.6732l-4.9313,0c-0.0192,-0.5997 -0.0576,-1.1975 -0.1151,-1.7933c-0.0614,-0.6023 -0.1419,-1.2027 -0.2474,-1.7992c-0.0825,-0.4738 -0.1803,-0.9437 -0.2935,-1.4136c-0.0441,-0.1918 -0.0921,-0.3683 -0.14,-0.5543c0.0978,0 0.1649,-0.0115 0.2321,-0.0115l0.3184,0c1.0766,0 2.1533,0 3.23,0c0.0615,-0.0065 0.1235,0.0061 0.1777,0.0359c0.0541,0.0298 0.0979,0.0755 0.1254,0.1309c0.4063,0.6832 0.743,1.4055 1.005,2.1559c0.2353,0.6777 0.4074,1.3756 0.5141,2.085zm-2.6086,-5.4166c-1.0473,0 -2.0945,0 -3.1418,0c-0.0635,0.0096 -0.1282,-0.0047 -0.1818,-0.0402c-0.0535,-0.0354 -0.0919,-0.0895 -0.1078,-0.1516c-0.4796,-1.3618 -1.2197,-2.6172 -2.179,-3.6962c2.3119,0.6208 4.3592,1.9767 5.8329,3.863c-0.0737,0.0124 -0.1479,0.0207 -0.2225,0.025zm-4.0126,1.1508c0.3458,1.1807 0.5884,2.3891 0.725,3.6117c0.0633,0.5601 0.1036,1.1259 0.1209,1.6937c0,0.0385 -0.0032,0.077 -0.0096,0.1151l-5.056,0l0,-5.549c0.0728,0 0.1381,-0.0153 0.2033,-0.0153l3.7498,0c0.1112,0.0019 0.2167,-0.0269 0.2666,0.1457l0,-0.0019zm-4.2044,6.4696l5.0157,0c-0.0211,0.4182 -0.0306,0.8267 -0.0633,1.2353c0,0.0172 0,0.0364 0,0.0537c-0.106,1.3713 -0.3581,2.7274 -0.7518,4.0452c-0.0052,0.0379 -0.0179,0.0743 -0.0373,0.1072c-0.0195,0.033 -0.0454,0.0616 -0.0762,0.0843c-0.0307,0.0228 -0.0658,0.0391 -0.1029,0.048c-0.0372,0.0089 -0.0758,0.0103 -0.1135,0.0041c-1.0243,0 -2.0485,0 -3.069,0l-0.8017,0l0,-5.5778zm1.1739,-11.4201c0.7793,0.5718 1.415,1.3171 1.8566,2.177c0.2858,0.5121 0.5275,1.0492 0.8133,1.6246l-3.8438,0l0,-4.3118c0.4215,0.0786 0.8204,0.2496 1.1681,0.5006l0.0058,0.0096zm-2.2097,16.9748c-0.0709,0 -0.1361,0.0173 -0.1918,0.0173l-3.7881,0c-0.1305,0 -0.2072,-0.0134 -0.2513,-0.1688c-0.4821,-1.7138 -0.74758,-3.4814 -0.79025,-5.2612c-0.00246,-0.046 -0.00246,-0.0921 0,-0.1381l5.00805,0l0.0134,5.5508zm-5.01954,-6.5904c0,-0.3184 0.0211,-0.6349 0.0422,-0.9591c0.0438,-0.7187 0.12639,-1.4345 0.24744,-2.1443c0.139,-0.8349 0.3403,-1.6581 0.6023,-2.4629l4.12,0l0,5.5624l-5.01194,0.0039zm3.83614,-10.3825c0.3493,-0.2596 0.7535,-0.4355 1.1815,-0.514l0,4.306l-3.8246,0c0.1611,-0.3836 0.328,-0.7519 0.5083,-1.1125c0.5179,-1.0434 1.1527,-1.9871 2.129,-2.6891l0.0058,0.0096zm-1.4846,-0.1323c-0.5783,0.6323 -1.0722,1.337 -1.4692,2.0964c-0.2815,0.5339 -0.5294,1.0848 -0.74232,1.6495c-0.01943,0.0361 -0.04679,0.0672 -0.08002,0.0911c-0.03322,0.024 -0.07144,0.04 -0.11178,0.047c-1.08946,0 -2.17701,0 -3.26071,0c-0.03418,-0.0069 -0.06759,-0.0172 -0.09974,-0.0307c0.93204,-1.1557 2.07824,-2.1209 3.37579,-2.8425c0.75638,-0.4221 1.55478,-0.7641 2.38228,-1.0204l0.0057,0.0096zm-8.16903,9.2968c0,-0.0307 0.01151,-0.0614 0.01535,-0.0921c0.23873,-1.4261 0.7367,-2.7965 1.46923,-4.0433c0.03363,-0.0715 0.08853,-0.1309 0.1572,-0.17c0.06866,-0.0391 0.14774,-0.0561 0.22642,-0.0486c1.15084,0 2.30167,0 3.44292,0l0.29539,0c-0.27814,0.9745 -0.48015,1.9691 -0.60419,2.9749c-0.08056,0.6387 -0.13235,1.2813 -0.16496,1.9181c-0.00959,0.2244 -0.01918,0.4488 -0.02493,0.6732l-4.95053,0c0.04412,-0.4124 0.06905,-0.819 0.13235,-1.2218l0.00575,0.0096zm-0.10933,2.5242c0,-0.0825 0,-0.1669 0,-0.2647l4.87572,0c0.09399,0.959 0.15345,1.8893 0.2858,2.8157c0.13234,0.9264 0.33374,1.8203 0.50828,2.7505l-0.38361,0c-1.11631,0 -2.23071,0 -3.34702,0c-0.05005,0.0002 -0.09956,-0.0103 -0.14521,-0.0308c-0.04566,-0.0205 -0.0864,-0.0505 -0.11949,-0.0881c-0.9598,-1.5749 -1.5354,-3.3536 -1.68022,-5.1922l0.00575,0.0096zm2.44745,6.3296c0.05146,-0.0084 0.10332,-0.0142 0.15537,-0.0173c1.07156,0 2.14375,0 3.21659,0c0.13043,0 0.21099,0.0211 0.26278,0.1631c0.47967,1.3748 1.22527,2.6418 2.19427,3.7287c-2.30478,-0.6504 -4.34624,-2.01 -5.83476,-3.886l0.00575,0.0115zm8.49511,4.3061c-0.6134,-0.1328 -1.1774,-0.4345 -1.6284,-0.8709c-1.0166,-0.936 -1.6496,-2.1213 -2.1559,-3.3853c0,-0.0115 0,-0.0307 0.0096,-0.0557l3.7747,0l0,4.3119zm2.6853,-0.8977c-0.4194,0.4083 -0.9344,0.7051 -1.498,0.8631c-0.046,0.0135 -0.0959,0.0154 -0.1611,0.0269l0,-4.3195l3.7651,0c0.0096,0.0192 0.025,0.0365 0.0211,0.046c-0.4948,1.2583 -1.1259,2.4341 -2.1252,3.372l-0.0019,0.0115zm0.984,0.5064c1.0242,-1.0799 1.6994,-2.3516 2.223,-3.7172c0.0269,-0.0672 0.117,-0.1573 0.1784,-0.1573c0.7308,0 1.4616,0 2.2019,0l1.2199,0c-0.2253,0.3525 -0.4947,0.6748 -0.8017,0.959c-1.3484,1.2717 -3.7211,2.7102 -5.0196,2.904l-0.0019,0.0115zm8.1901,-9.3065c-0.2399,1.4685 -0.747,2.8805 -1.4961,4.1661c-0.0306,0.067 -0.0815,0.1227 -0.1455,0.1592c-0.0641,0.0365 -0.138,0.0519 -0.2112,0.0441c-0.6138,0 -1.2276,0 -1.8414,0l-1.9065,0c0.4066,-1.4353 0.6549,-2.9108 0.7403,-4.4001c0.0269,-0.3836 0.0441,-0.7806 0.0557,-1.1719l4.939,0c-0.0422,0.3951 -0.0672,0.796 -0.1324,1.1911l-0.0019,0.0115z"/>
  <path id="svg_16" fill="#9FCF78" d="m18.42913,17.1528c-1.1509,-0.3184 -1.2736,-0.2724 -1.6285,0.0422c-0.3548,0.3146 -1.544,2.4935 -2.65457,2.6143c-1.11056,0.1209 -1.72625,0.1189 -1.72625,0.8325c0,0.7135 0.82476,1.4673 1.37908,1.1105c0.55433,-0.3567 1.22944,-0.3567 1.30814,-0.1189c0.0786,0.2378 0,0.8727 -0.43542,0.8727c-0.4354,0 -4.79516,0.3203 -6.55978,-2.3285c0.69117,-3.0149 2.47638,-5.666 5.00999,-7.4402c0.70776,-0.0825 1.75695,-0.0537 2.18471,0.7269c0.6732,1.2295 1.5459,1.5076 1.8624,1.3427c0.3165,-0.165 2.9692,-1.03 3.1111,0.0403c0.1419,1.0703 -0.7001,2.622 -1.8509,2.3055z"/>
  <path id="svg_17" fill="#9FCF78" d="m17.24793,26.0392c0.2739,0.0412 0.5313,0.1566 0.7442,0.3338c0.2704,0.2263 0.2743,0.842 0.3491,1.2506c0.1592,0.8727 0.1131,0.9379 0.1534,1.8509c0.0403,0.913 0.1055,2.1406 0.3107,2.4589c0.2053,0.3184 0.7999,0.7922 1.2353,0.7922c0.4354,0 0.913,-0.7135 0.913,-0.9916c0,-0.2782 0.5946,-2.973 0.9916,-3.3701c0.3971,-0.397 1.5863,-1.5459 1.1892,-2.0619c-0.397,-0.5159 -1.1508,-1.3426 -1.4673,-1.1892c-0.3165,0.1534 -0.8478,-0.4833 -1.1259,-1.1777c-0.2781,-0.6943 -2.3784,-0.8056 -2.7486,-0.6061c-0.3702,0.1995 -1.241,0.5141 -1.3599,0.8708c-0.118,0.4398 -0.118,0.9029 0,1.3427c0.0767,0.2608 0.514,0.42 0.8152,0.4967z"/>
  <path id="svg_18" fill="#9FCF78" d="m32.19153,19.1667c-0.2896,0 -0.6502,0 -1.0511,0c-1.5843,0 -3.7882,-0.046 -4.6551,-0.3395c-0.1389,-0.0299 -0.263,-0.1072 -0.351,-0.2186c-0.0984,-0.1861 -0.145,-0.3952 -0.1349,-0.6054c0.0101,-0.2102 0.0766,-0.4138 0.1924,-0.5896c0.1195,-0.2036 0.2568,-0.3962 0.4105,-0.5754l0.0096,-0.0115c0.3164,-0.3836 2.1808,0.0748 3.0535,0c0.4335,-0.0384 0.9744,-0.1247 1.4098,-0.1918c0.1419,0.2455 0.2762,0.4955 0.4028,0.75l0.0575,0.115l0.0576,0.1209c0.0345,0.0767 0.071,0.1534 0.1055,0.2321c0.0153,0.0364 0.0326,0.0709 0.0479,0.1074c0.0154,0.0364 0.0384,0.0863 0.0557,0.1304l0.0402,0.0959l0.0576,0.1439c0.0326,0.0805 0.0633,0.163 0.094,0.2435c0.0153,0.0403 0.0306,0.0825 0.0441,0.1228c0.0134,0.0403 0.0307,0.0806 0.0441,0.1228c0.0134,0.0422 0.0288,0.0824 0.0422,0.1227c0.0134,0.0403 0.0307,0.0902 0.0441,0.1343l0.023,0.0901z"/>
  <path id="svg_19" fill="#9FCF78" d="m32.78023,22.9434c0,0.2877 -0.0096,0.5754 -0.0288,0.8535c0,0.0364 0,0.071 -0.0096,0.1074l-0.0115,0.1592c0,0.0518 -0.0096,0.1055 -0.0153,0.1573l-0.0173,0.1573l-0.0172,0.1477l-0.0231,0.1668c-0.0134,0.1036 -0.0287,0.2053 -0.046,0.3088c-0.0096,0.0499 -0.0172,0.1017 -0.0268,0.1535l-0.0288,0.1534c-0.0096,0.0499 -0.0192,0.1017 -0.0307,0.1516c-0.0115,0.0498 -0.0211,0.1016 -0.0326,0.1534c-0.0115,0.0518 -0.0211,0.0997 -0.0326,0.1515c-0.0115,0.0518 -0.0192,0.0844 -0.0307,0.1285c0,0.0116 0,0.0231 0,0.0327c-0.0115,0.0441 -0.0211,0.0863 -0.0326,0.1285c-0.0326,0.1285 -0.0671,0.2551 -0.1036,0.3836c-0.0192,0.0652 -0.0383,0.1304 -0.0594,0.1918c-0.0422,0.14 -0.0883,0.2781 -0.1362,0.4143c-0.0211,0.0652 -0.0441,0.1285 -0.0672,0.1918l0,0.0134l-0.069,0.1918c0,0.0115 -0.0096,0.023 -0.0134,0.0365c-0.0499,0.1285 -0.1036,0.257 -0.1573,0.3836c-0.0537,0.1266 -0.0902,0.2052 -0.1362,0.3069c-0.0072,0.013 -0.0136,0.0265 -0.0192,0.0402c-0.0441,0.094 -0.0882,0.1919 -0.1362,0.2801l0,0.0173c-0.5333,1.0735 -1.2188,2.0644 -2.035,2.9423c-0.1005,0.0152 -0.2026,0.0152 -0.3031,0c-0.1872,-0.0356 -0.3618,-0.1196 -0.5064,-0.2436c-0.0539,-0.0444 -0.1033,-0.0938 -0.1476,-0.1477c-0.2177,-0.2795 -0.3615,-0.6093 -0.4182,-0.959c-0.0688,-0.3488 -0.1048,-0.7033 -0.1074,-1.0588c-0.0345,-1.5345 0.3031,-3.349 -0.0384,-3.9608c-0.1918,-0.3395 -0.6157,-0.4354 -1.1278,-0.4393c-0.3391,0.0039 -0.6777,0.025 -1.0146,0.0633c-0.6925,0.0633 -1.3657,0.1228 -1.7263,-0.1112c-0.2025,-0.1135 -0.3735,-0.2757 -0.4974,-0.472c-0.1239,-0.1963 -0.1969,-0.4204 -0.2123,-0.652c-0.0159,-0.3494 0.021,-0.6993 0.1093,-1.0377c0.048,-0.2148 0.1151,-0.4507 0.1919,-0.7077c0.2551,-0.8229 1.239,-1.0607 2.1098,-1.101c0.325,-0.0137 0.6505,-0.006 0.9744,0.023c0.3242,0.0288 0.5371,0.0652 0.5371,0.0652c0,0 3.113,0.3721 4.3847,0.5639l0.2704,0.0422c0.1918,0.0326 0.4891,0.2379 0.8114,0.5908c0.0076,0.0805 0.0134,0.1611 0.0172,0.2417c0.0019,0.2589 0.0096,0.5274 0.0096,0.796z"/>
  <path id="svg_20" fill="url(#paint2_linear_1098_6420)" d="m20.29943,34.4268c6.3421,0 11.4834,-5.1414 11.4834,-11.4835c0,-6.3421 -5.1413,-11.4835 -11.4834,-11.4835c-6.34218,0 -11.4835,5.1414 -11.4835,11.4835c0,6.3421 5.14132,11.4835 11.4835,11.4835z"/>
  <path id="svg_21" fill="#231F20" d="m32.79553,22.9202c0,0.2878 -0.0096,0.5755 -0.0288,0.8536c0,0.0345 0,0.071 -0.0096,0.1074c-0.0096,0.0364 0,0.1055 -0.0134,0.1592c-0.0135,0.0537 -0.0096,0.1055 -0.0135,0.1573l-0.0172,0.1572l-0.0173,0.1477l-0.023,0.1669c-0.0134,0.1036 -0.0288,0.2052 -0.048,0.3088c0,0.0499 -0.0172,0.1017 -0.0249,0.1535l-0.0288,0.1534c-0.0096,0.0499 -0.0191,0.1017 -0.0307,0.1515c-0.0115,0.0499 -0.021,0.1017 -0.0326,0.1535c-0.0115,0.0518 -0.0211,0.0997 -0.0326,0.1515c-0.0115,0.0518 -0.0211,0.0844 -0.0307,0.1285c-0.0023,0.0111 -0.0055,0.022 -0.0095,0.0326c-0.0096,0.0441 -0.0192,0.0863 -0.0307,0.1285c-0.0326,0.1285 -0.0672,0.2551 -0.1055,0.3837c-0.0179,0.0652 -0.0371,0.1291 -0.0576,0.1918c-0.0422,0.1381 -0.0882,0.2781 -0.1362,0.4143c-0.0211,0.0633 -0.0441,0.1285 -0.0671,0.1918l0,0.0134l-0.069,0.1918c0,0.0134 -0.0096,0.0249 -0.0154,0.0365c-0.0498,0.1278 -0.1016,0.2557 -0.1553,0.3836c-0.0231,0.0518 -0.0461,0.1016 -0.0672,0.1534l-0.0633,0.1362l0,0.0153l-0.0192,0.0422l0,0.0173l-0.0575,0.1227l-0.069,0.1401l0,0.0172l-0.0231,0.0441c-0.0249,0.0499 -0.0498,0.1017 -0.0767,0.1516c-0.0024,0.0061 -0.0057,0.0119 -0.0096,0.0172l-0.0748,0.1439l-0.0441,0.0806c-0.0595,0.1093 -0.1208,0.2167 -0.1918,0.3241c-0.0288,0.0499 -0.0595,0.0997 -0.0902,0.1496c-0.1802,0.2973 -0.374,0.5869 -0.5754,0.867c-1.5429,2.1217 -3.7134,3.7051 -6.2049,4.5266c-0.2896,0.0959 -0.585,0.1803 -0.8823,0.2532l-0.1918,0.0441c-0.1784,0.0403 -0.3587,0.0787 -0.539,0.1132l-0.1918,0.0307l-0.1918,0.0306l-0.3683,0.0499l-0.2129,0.025l-0.1649,0.0153l-0.1919,0.0154l-0.2109,0.0153l-0.1516,0l-0.0518,0l-0.1381,0l-0.115,0l-0.2973,0c-0.4788,-0.0003 -0.9572,-0.0278 -1.4328,-0.0825c-0.1573,-0.0172 -0.3127,-0.0384 -0.4661,-0.0614l-0.1573,-0.0249l-0.305,-0.0537l-0.1553,-0.0307c-0.2475,-0.0518 -0.493,-0.1093 -0.7347,-0.1745c-0.1208,-0.0326 -0.2397,-0.0672 -0.3586,-0.1036c-1.2608,-0.3802 -2.45281,-0.9591 -3.5312,-1.7148l0.12851,0.0192c0.15345,0.0256 0.30881,0.0467 0.46609,0.0633c0.47565,0.0547 0.95402,0.0822 1.4328,0.0825l0.1611,0l0.1362,0l0.1151,0l0.14,0l0.0499,0l0.1515,0l0.211,-0.0134l0.1918,-0.0154l0.1649,-0.0172l0.2149,-0.0231c0.1227,-0.0153 0.2455,-0.0326 0.3663,-0.0517l0.1918,-0.0307l0.1918,-0.0326c0.1803,-0.0326 0.3606,-0.071 0.539,-0.1113l0.0096,0l0.1822,-0.0422c0.2992,-0.0748 0.5927,-0.1592 0.8823,-0.2532c1.2218,-0.4025 2.374,-0.9913 3.4161,-1.7454l-3.0056,-3.207l0.5102,-5.4397l6.0534,4.6705c0.0288,-0.0479 0.0556,-0.0978 0.0825,-0.1477l0.0441,-0.0805l0.0748,-0.1419c0.001,-0.0064 0.001,-0.0129 0,-0.0192c0.0269,-0.0499 0.0518,-0.0998 0.0767,-0.1516c0.0088,-0.014 0.0165,-0.0288 0.023,-0.0441l0,-0.0153l0.0691,-0.14l0.0575,-0.1228l0.0096,-0.0192l0.0192,-0.0402l0,-0.0154l0.0633,-0.1362c0.0211,-0.0518 0.0441,-0.1036 0.0671,-0.1534c0.0537,-0.1285 0.1055,-0.2551 0.1554,-0.3836c0,-0.0116 0,-0.0231 0.0153,-0.0365l0.0691,-0.1918l0,-0.0153c0.023,-0.0633 0.046,-0.1266 0.0671,-0.1918c0.048,-0.1381 0.094,-0.2762 0.1362,-0.4163c0.0205,-0.0652 0.0397,-0.1291 0.0576,-0.1918c0.0383,-0.1266 0.0728,-0.2512 0.1054,-0.3836c0.0116,-0.0441 0.0211,-0.0863 0.0307,-0.1285c0.0009,-0.0115 0.0009,-0.023 0,-0.0345c0.0096,-0.0422 0.0211,-0.0844 0.0307,-0.1285c0.0096,-0.0441 0.023,-0.0998 0.0326,-0.1516c0.0096,-0.0518 0.0231,-0.0997 0.0326,-0.1515c0.0096,-0.0518 0.0211,-0.1016 0.0307,-0.1534l0.0288,-0.1535c0,-0.0498 0.0173,-0.1016 0.0249,-0.1534c0.0192,-0.1017 0.0346,-0.2052 0.048,-0.3069l0.023,-0.1669l0.0173,-0.1496l0.0172,-0.1554c0,-0.0537 0.0096,-0.1054 0.0135,-0.1592c0.0038,-0.0537 0.0095,-0.1054 0.0134,-0.1572c0.0038,-0.0518 0,-0.0729 0,-0.1094c0.0192,-0.2813 0.0288,-0.5651 0.0288,-0.8516c0,-0.2704 -0.0096,-0.537 -0.0269,-0.8037c0,-0.0805 -0.0058,-0.1611 -0.0173,-0.2416c-0.0096,-0.1305 -0.023,-0.259 -0.0383,-0.3836c-0.0154,-0.1247 -0.025,-0.2072 -0.0403,-0.3108l-0.023,-0.1553l-0.023,-0.1535c-0.0096,-0.0518 -0.0173,-0.1035 -0.0269,-0.1553c-0.0096,-0.0518 -0.0173,-0.0921 -0.0268,-0.1381c-0.0096,-0.0461 -0.0211,-0.1113 -0.0326,-0.1669c-0.0116,-0.0556 -0.0192,-0.1017 -0.0307,-0.1515l-0.0346,-0.1516c-0.0249,-0.1093 -0.0518,-0.2167 -0.0786,-0.3241c0,-0.0307 -0.0153,-0.0595 -0.0249,-0.0883l-0.0231,-0.0901l-0.0268,-0.0959c-0.0154,-0.0537 -0.0307,-0.1074 -0.048,-0.1592c-0.0172,-0.0518 -0.0249,-0.0902 -0.0402,-0.1343c-0.0154,-0.0441 -0.0288,-0.094 -0.0442,-0.1419c-0.0134,-0.0441 -0.0287,-0.0882 -0.0441,-0.1323c-0.0153,-0.0442 -0.0268,-0.0825 -0.0422,-0.1247c-0.0153,-0.0422 -0.0287,-0.0806 -0.0441,-0.1228l-0.0441,-0.1208c-0.0307,-0.0825 -0.0614,-0.1631 -0.094,-0.2436l-0.0575,-0.1439l-0.0403,-0.0978c-0.0173,-0.0422 -0.0364,-0.0863 -0.0556,-0.1285l-0.048,-0.1093c-0.0345,-0.0768 -0.071,-0.1535 -0.1055,-0.2321l-0.0575,-0.1189l-0.0576,-0.117c-0.1285,-0.2551 -0.2627,-0.5064 -0.4066,-0.7519c-0.913,-1.5569 -2.1516,-2.8981 -3.6309,-3.9321c1.81,0.2987 3.5319,0.9923 5.0436,2.0315c1.5116,1.0393 2.7758,2.3987 3.7028,3.9817c0.1438,0.2474 0.2781,0.4968 0.4066,0.7519l0.0576,0.117l0.0575,0.1208c0.0345,0.0767 0.071,0.1534 0.1055,0.2321c0.0153,0.0364 0.0326,0.071 0.048,0.1074c0.0153,0.0364 0.0364,0.0863 0.0556,0.1304l0.0403,0.0959l0.0575,0.1439c0.0326,0.0805 0.0633,0.163 0.094,0.2436c0.0153,0.0403 0.0288,0.0805 0.0441,0.1227c0.0153,0.0422 0.0307,0.0806 0.0441,0.1228c0.0134,0.0422 0.0288,0.0825 0.0422,0.1228c0.0134,0.0402 0.0307,0.0882 0.0441,0.1342c0.0154,0.046 0.0307,0.094 0.0441,0.14c0.0135,0.0461 0.0288,0.0902 0.0403,0.1343c0.0115,0.0441 0.0326,0.1074 0.048,0.1611c0.0153,0.0537 0.0172,0.0633 0.0268,0.094l0.023,0.0901c0.0096,0.0288 0.0173,0.0595 0.025,0.0883c0.0268,0.1074 0.0537,0.2148 0.0786,0.3241l0.0345,0.1516c0.0096,0.0498 0.0211,0.1016 0.0307,0.1515c0.0096,0.0499 0.023,0.1112 0.0326,0.1669c0.0096,0.0556 0.0173,0.092 0.0269,0.1381c0.0096,0.046 0.0173,0.1035 0.0268,0.1553l0.0231,0.1535l0.023,0.1553c0.0153,0.1036 0.0287,0.2091 0.0403,0.3127c0.0115,0.1035 0.0268,0.2589 0.0383,0.3836c0,0.0786 0.0134,0.1611 0.0173,0.2417c0.0403,0.2666 0.0499,0.5351 0.0499,0.8036z" opacity="0.2"/>
  <path id="svg_22" fill="url(#paint3_linear_1098_6420)" d="m19.50153,27.7481c0.4269,0 0.773,-0.3461 0.773,-0.773c0,-0.4269 -0.3461,-0.773 -0.773,-0.773c-0.4269,0 -0.773,0.3461 -0.773,0.773c0,0.4269 0.3461,0.773 0.773,0.773z"/>
  <path id="svg_23" fill="white" d="m19.53033,22.6787l-0.0154,0c-0.0943,0 -0.1707,0.0764 -0.1707,0.1707l0,3.9551c0,0.0942 0.0764,0.1707 0.1707,0.1707l0.0154,0c0.0943,0 0.1707,-0.0765 0.1707,-0.1707l0,-3.9551c0,-0.0943 -0.0764,-0.1707 -0.1707,-0.1707z"/>
  <path id="svg_24" fill="url(#paint4_linear_1098_6420)" d="m19.50143,24.8287c0.7246,0 1.3119,-0.5873 1.3119,-1.3119c0,-0.7246 -0.5873,-1.312 -1.3119,-1.312c-0.7246,0 -1.312,0.5874 -1.312,1.312c0,0.7246 0.5874,1.3119 1.312,1.3119z"/>
 </g>
</svg>