<svg width="750" height="750" xmlns="http://www.w3.org/2000/svg" xml:space="preserve" enable-background="new 0 0 3186 734" version="1.1">

 <g>
  <title>Layer 1</title>
  <g display="none" id="Full_Shield">
   <path id="svg_1" d="m158.22295,329.104c0,0 0,0 0,0c0,169.707 92.208,317.869 229.25,397.146c137.043,-79.277 229.25,-227.439 229.25,-397.146l0,0c-67.44,-39.015 -145.733,-61.354 -229.25,-61.354c-83.516,0 -161.81,22.339 -229.25,61.354z" display="inline"/>
  </g>
  <g display="none" id="Shopping_Cart">
   <g id="svg_2" display="inline">
    <path id="svg_3" d="m80.039,353.133c0,-2.578 0,-5.155 0,-7.732c6.126,-10.507 11.663,-12.722 23.391,-9.073c12.857,4.001 25.648,8.219 38.509,12.214c7.163,2.226 10.989,6.905 11.778,14.356c0.825,7.805 1.914,15.581 2.894,23.418c25.959,2.834 51.307,5.565 76.644,8.375c37.694,4.181 75.378,8.453 113.077,12.604c9.688,1.067 19.528,1.608 23.63,12.842c0,2.577 0,5.154 0,7.731c-0.342,0.517 -0.898,0.998 -0.995,1.559c-3.56,20.445 -7.174,40.883 -10.567,61.357c-2.281,13.759 -6.044,17.216 -19.796,17.229c-22.33,0.022 -44.66,0.006 -66.991,0.006c-33.28,0 -66.561,-0.043 -99.842,0.101c-2.189,0.009 -5.928,1.001 -6.291,2.286c-1.584,5.619 -2.187,11.513 -3.248,17.928c3.465,0 6.01,0 8.554,0c52.604,0 105.209,-0.063 157.814,0.13c3.85,0.014 8.172,1.082 11.432,3.054c5.385,3.257 7.11,10.486 5.127,16.641c-1.923,5.967 -7.649,9.843 -15.065,9.855c-31.993,0.051 -63.985,0.022 -95.978,0.022c-29.201,0 -58.402,0.028 -87.603,-0.014c-12.398,-0.019 -18.942,-7.999 -16.613,-20.067c0.405,-2.103 0.845,-4.205 1.116,-6.325c1.949,-15.218 7.368,-29.963 5.498,-45.712c-1.996,-16.813 -3.406,-33.694 -5.115,-50.544c-1.904,-18.765 -3.946,-37.517 -5.704,-56.296c-0.335,-3.573 -1.787,-5.163 -5.129,-6.132c-8.419,-2.439 -16.638,-5.634 -25.126,-7.769c-7.139,-1.793 -12.371,-5.335 -15.401,-12.044z" stroke-miterlimit="10" stroke="#231F20" fill="#FFFFFF"/>
    <path id="svg_4" d="m189.673,589.392c0.037,13.106 -9.458,22.95 -22.279,23.094c-13.235,0.15 -23.08,-9.634 -23.089,-22.945c-0.007,-13.009 9.597,-22.62 22.62,-22.638c13.063,-0.017 22.711,9.52 22.748,22.489z" stroke-miterlimit="10" stroke="#231F20" fill="#FFFFFF"/>
    <path id="svg_5" d="m280.926,589.492c0.011,-13.057 9.541,-22.577 22.614,-22.59c13.019,-0.013 22.717,9.599 22.741,22.538c0.025,13.274 -9.858,23.169 -23.021,23.045c-12.884,-0.121 -22.344,-9.861 -22.334,-22.993z" stroke-miterlimit="10" stroke="#231F20" fill="#FFFFFF"/>
   </g>
  </g>
  <g id="Lock"/>
  <g id="ClippedShield_1_">
   <g id="svg_6">
    <path id="svg_7" d="m239.75795,250.083l0,-27.565c0,-81.58 66.133,-147.717 147.716,-147.717c81.581,0 147.715,66.137 147.715,147.717l0,27.565c19.21,6.536 37.851,14.302 55.82,23.22l0,-50.541c0,-112.41 -91.126,-203.536 -203.535,-203.536c-112.41,0 -203.537,91.126 -203.537,203.536l0,50.54c17.97,-8.917 36.611,-16.683 55.821,-23.219z" fill="#609CEC"/>
    <path id="svg_8" d="m387.47295,230.75c-83.516,0 -161.81,22.339 -229.25,61.354c0,0.001 0,0.001 0,0.001c0,169.706 92.208,317.868 229.25,397.145c137.043,-79.277 229.25,-227.439 229.25,-397.146c-67.44,-39.015 -145.733,-61.354 -229.25,-61.354zm-67.606,344.735c-13.235,0.15 -23.08,-9.634 -23.089,-22.945c-0.007,-13.009 9.597,-22.62 22.62,-22.638c13.063,-0.017 22.711,9.521 22.749,22.489c0.036,13.107 -9.458,22.951 -22.28,23.094zm135.867,0c-12.885,-0.121 -22.345,-9.861 -22.335,-22.993c0.011,-13.057 9.541,-22.577 22.614,-22.59c13.019,-0.013 22.717,9.599 22.741,22.538c0.026,13.275 -9.858,23.169 -23.02,23.045zm65.705,-183.058c-3.56,20.445 -7.174,40.883 -10.567,61.357c-2.281,13.759 -6.044,17.216 -19.796,17.229c-22.33,0.022 -44.66,0.006 -66.991,0.006c-33.28,0 -66.561,-0.043 -99.842,0.101c-2.189,0.009 -5.928,1.001 -6.291,2.286c-1.584,5.619 -2.187,11.513 -3.248,17.928c3.465,0 6.01,0 8.554,0c52.604,0 105.209,-0.063 157.814,0.13c3.85,0.014 8.172,1.082 11.432,3.054c5.385,3.257 7.11,10.486 5.127,16.641c-1.923,5.967 -7.649,9.843 -15.065,9.855c-31.993,0.051 -63.985,0.022 -95.978,0.022c-29.201,0 -58.402,0.028 -87.603,-0.014c-12.398,-0.019 -18.942,-7.999 -16.613,-20.067c0.405,-2.103 0.845,-4.205 1.116,-6.325c1.949,-15.218 7.368,-29.963 5.498,-45.712c-1.996,-16.813 -3.406,-33.694 -5.115,-50.544c-1.904,-18.765 -3.946,-37.517 -5.704,-56.296c-0.335,-3.573 -1.787,-5.163 -5.129,-6.132c-8.419,-2.439 -16.638,-5.634 -25.126,-7.769c-7.138,-1.794 -12.37,-5.336 -15.4,-12.045c0,-2.578 0,-5.155 0,-7.732c6.126,-10.507 11.663,-12.722 23.391,-9.073c12.857,4.001 25.648,8.219 38.509,12.214c7.163,2.226 10.989,6.905 11.778,14.356c0.825,7.805 1.914,15.581 2.894,23.418c25.959,2.834 51.307,5.565 76.644,8.375c37.694,4.181 75.378,8.453 113.077,12.604c9.688,1.067 19.528,1.608 23.63,12.842c0,2.577 0,5.154 0,7.731c-0.343,0.518 -0.899,0.999 -0.996,1.56z" fill="#609CEC"/>
   </g>
  </g>
 </g>
</svg>